<mxfile host="app.diagrams.net" modified="2020-08-11T21:59:00.461Z" agent="5.0 (Windows NT 10.0; Win64; x64) AppleWebKit/537.36 (KHTML, like Gecko) Chrome/84.0.4147.105 Safari/537.36" etag="FzRhrKT24zT20TC_OlXO" version="13.6.2" type="github">
  <diagram id="fqSOZ36k-DIlkdXyCzjL" name="Page-1">
    <mxGraphModel dx="1422" dy="762" grid="1" gridSize="10" guides="1" tooltips="1" connect="1" arrows="1" fold="1" page="1" pageScale="1" pageWidth="827" pageHeight="1169" math="0" shadow="0">
      <root>
        <mxCell id="0" />
        <mxCell id="1" parent="0" />
        <mxCell id="g6ee9xb9qPj-vaVIbg3L-1" value="Band" style="shape=umlActor;verticalLabelPosition=bottom;verticalAlign=top;html=1;outlineConnect=0;" parent="1" vertex="1">
          <mxGeometry x="60" y="280" width="30" height="60" as="geometry" />
        </mxCell>
        <mxCell id="g6ee9xb9qPj-vaVIbg3L-2" value="&amp;lt;&amp;lt;include&amp;gt;&amp;gt;" style="edgeStyle=none;html=1;endArrow=open;verticalAlign=bottom;dashed=1;labelBackgroundColor=none;" parent="1" target="g6ee9xb9qPj-vaVIbg3L-3" edge="1">
          <mxGeometry width="160" relative="1" as="geometry">
            <mxPoint x="80" y="313" as="sourcePoint" />
            <mxPoint x="120" y="310" as="targetPoint" />
          </mxGeometry>
        </mxCell>
        <mxCell id="g6ee9xb9qPj-vaVIbg3L-3" value="register" style="ellipse;whiteSpace=wrap;html=1;" parent="1" vertex="1">
          <mxGeometry x="170" y="270" width="150" height="90" as="geometry" />
        </mxCell>
        <mxCell id="g6ee9xb9qPj-vaVIbg3L-4" value="&amp;lt;&amp;lt;include&amp;gt;&amp;gt;" style="edgeStyle=none;html=1;endArrow=open;verticalAlign=bottom;dashed=1;labelBackgroundColor=none;exitX=0.5;exitY=0;exitDx=0;exitDy=0;" parent="1" source="g6ee9xb9qPj-vaVIbg3L-3" target="g6ee9xb9qPj-vaVIbg3L-5" edge="1">
          <mxGeometry width="160" relative="1" as="geometry">
            <mxPoint x="330" y="370" as="sourcePoint" />
            <mxPoint x="250" y="220" as="targetPoint" />
          </mxGeometry>
        </mxCell>
        <mxCell id="g6ee9xb9qPj-vaVIbg3L-5" value="contacts instagram" style="ellipse;whiteSpace=wrap;html=1;" parent="1" vertex="1">
          <mxGeometry x="200" y="110" width="120" height="50" as="geometry" />
        </mxCell>
        <mxCell id="g6ee9xb9qPj-vaVIbg3L-6" value="&amp;lt;&amp;lt;include&amp;gt;&amp;gt;" style="edgeStyle=none;html=1;endArrow=open;verticalAlign=bottom;dashed=1;labelBackgroundColor=none;exitX=0.7;exitY=-0.011;exitDx=0;exitDy=0;exitPerimeter=0;" parent="1" source="g6ee9xb9qPj-vaVIbg3L-3" target="g6ee9xb9qPj-vaVIbg3L-7" edge="1">
          <mxGeometry width="160" relative="1" as="geometry">
            <mxPoint x="330" y="370" as="sourcePoint" />
            <mxPoint x="380" y="270" as="targetPoint" />
          </mxGeometry>
        </mxCell>
        <mxCell id="g6ee9xb9qPj-vaVIbg3L-7" value="sound cloud &lt;br&gt;create attach" style="ellipse;whiteSpace=wrap;html=1;" parent="1" vertex="1">
          <mxGeometry x="330" y="130" width="120" height="50" as="geometry" />
        </mxCell>
        <mxCell id="g6ee9xb9qPj-vaVIbg3L-8" value="&amp;lt;&amp;lt;include&amp;gt;&amp;gt;" style="edgeStyle=none;html=1;endArrow=open;verticalAlign=bottom;dashed=1;labelBackgroundColor=none;exitX=0.987;exitY=0.267;exitDx=0;exitDy=0;exitPerimeter=0;" parent="1" source="g6ee9xb9qPj-vaVIbg3L-3" target="g6ee9xb9qPj-vaVIbg3L-9" edge="1">
          <mxGeometry width="160" relative="1" as="geometry">
            <mxPoint x="330" y="360" as="sourcePoint" />
            <mxPoint x="490" y="360" as="targetPoint" />
          </mxGeometry>
        </mxCell>
        <mxCell id="g6ee9xb9qPj-vaVIbg3L-9" value="cover photo of band" style="ellipse;whiteSpace=wrap;html=1;" parent="1" vertex="1">
          <mxGeometry x="400" y="190" width="120" height="50" as="geometry" />
        </mxCell>
        <mxCell id="g6ee9xb9qPj-vaVIbg3L-10" value="&amp;lt;&amp;lt;extend&amp;gt;&amp;gt;" style="edgeStyle=none;html=1;startArrow=open;endArrow=none;startSize=12;verticalAlign=bottom;dashed=1;labelBackgroundColor=none;entryX=1;entryY=0.578;entryDx=0;entryDy=0;entryPerimeter=0;" parent="1" source="g6ee9xb9qPj-vaVIbg3L-11" target="g6ee9xb9qPj-vaVIbg3L-3" edge="1">
          <mxGeometry width="160" relative="1" as="geometry">
            <mxPoint x="340" y="380" as="sourcePoint" />
            <mxPoint x="490" y="360" as="targetPoint" />
          </mxGeometry>
        </mxCell>
        <mxCell id="g6ee9xb9qPj-vaVIbg3L-11" value="youtube clip" style="ellipse;whiteSpace=wrap;html=1;" parent="1" vertex="1">
          <mxGeometry x="440" y="260" width="120" height="40" as="geometry" />
        </mxCell>
        <mxCell id="g6ee9xb9qPj-vaVIbg3L-12" value="&amp;lt;&amp;lt;extend&amp;gt;&amp;gt;" style="edgeStyle=none;html=1;startArrow=open;endArrow=none;startSize=12;verticalAlign=bottom;dashed=1;labelBackgroundColor=none;entryX=0.92;entryY=0.811;entryDx=0;entryDy=0;entryPerimeter=0;exitX=0;exitY=0;exitDx=0;exitDy=0;" parent="1" source="g6ee9xb9qPj-vaVIbg3L-13" target="g6ee9xb9qPj-vaVIbg3L-3" edge="1">
          <mxGeometry width="160" relative="1" as="geometry">
            <mxPoint x="320" y="420" as="sourcePoint" />
            <mxPoint x="490" y="360" as="targetPoint" />
          </mxGeometry>
        </mxCell>
        <mxCell id="g6ee9xb9qPj-vaVIbg3L-13" value="add my site to contact" style="ellipse;whiteSpace=wrap;html=1;" parent="1" vertex="1">
          <mxGeometry x="420" y="340" width="140" height="40" as="geometry" />
        </mxCell>
        <mxCell id="g6ee9xb9qPj-vaVIbg3L-14" value="&amp;lt;&amp;lt;include&amp;gt;&amp;gt;" style="edgeStyle=none;html=1;endArrow=open;verticalAlign=bottom;dashed=1;labelBackgroundColor=none;exitX=0.313;exitY=0.967;exitDx=0;exitDy=0;exitPerimeter=0;" parent="1" source="g6ee9xb9qPj-vaVIbg3L-3" target="g6ee9xb9qPj-vaVIbg3L-15" edge="1">
          <mxGeometry width="160" relative="1" as="geometry">
            <mxPoint x="200" y="500" as="sourcePoint" />
            <mxPoint x="200" y="450" as="targetPoint" />
          </mxGeometry>
        </mxCell>
        <mxCell id="g6ee9xb9qPj-vaVIbg3L-15" value="use website as client (cafe)" style="ellipse;whiteSpace=wrap;html=1;" parent="1" vertex="1">
          <mxGeometry x="50" y="435" width="120" height="70" as="geometry" />
        </mxCell>
        <mxCell id="g6ee9xb9qPj-vaVIbg3L-16" value="&amp;lt;&amp;lt;include&amp;gt;&amp;gt;" style="edgeStyle=none;html=1;endArrow=open;verticalAlign=bottom;dashed=1;labelBackgroundColor=none;exitX=0.667;exitY=1;exitDx=0;exitDy=0;exitPerimeter=0;" parent="1" source="g6ee9xb9qPj-vaVIbg3L-3" target="g6ee9xb9qPj-vaVIbg3L-17" edge="1">
          <mxGeometry width="160" relative="1" as="geometry">
            <mxPoint x="330" y="350" as="sourcePoint" />
            <mxPoint x="470" y="510" as="targetPoint" />
          </mxGeometry>
        </mxCell>
        <mxCell id="g6ee9xb9qPj-vaVIbg3L-17" value="see my confirmed events by client (cafe)" style="ellipse;whiteSpace=wrap;html=1;" parent="1" vertex="1">
          <mxGeometry x="370" y="440" width="130" height="80" as="geometry" />
        </mxCell>
        <mxCell id="g6ee9xb9qPj-vaVIbg3L-18" value="&amp;lt;&amp;lt;include&amp;gt;&amp;gt;" style="edgeStyle=none;html=1;endArrow=open;verticalAlign=bottom;dashed=1;labelBackgroundColor=none;exitX=0.992;exitY=0.388;exitDx=0;exitDy=0;exitPerimeter=0;" parent="1" source="g6ee9xb9qPj-vaVIbg3L-17" target="g6ee9xb9qPj-vaVIbg3L-19" edge="1">
          <mxGeometry width="160" relative="1" as="geometry">
            <mxPoint x="530" y="500" as="sourcePoint" />
            <mxPoint x="580" y="460" as="targetPoint" />
          </mxGeometry>
        </mxCell>
        <mxCell id="g6ee9xb9qPj-vaVIbg3L-19" value="confirm from your side" style="ellipse;whiteSpace=wrap;html=1;" parent="1" vertex="1">
          <mxGeometry x="600" y="370" width="120" height="50" as="geometry" />
        </mxCell>
        <mxCell id="g6ee9xb9qPj-vaVIbg3L-20" value="&amp;lt;&amp;lt;include&amp;gt;&amp;gt;" style="edgeStyle=none;html=1;endArrow=open;verticalAlign=bottom;dashed=1;labelBackgroundColor=none;exitX=1;exitY=0.5;exitDx=0;exitDy=0;" parent="1" target="g6ee9xb9qPj-vaVIbg3L-21" edge="1" source="g6ee9xb9qPj-vaVIbg3L-19">
          <mxGeometry width="160" relative="1" as="geometry">
            <mxPoint x="730" y="410" as="sourcePoint" />
            <mxPoint x="830" y="410" as="targetPoint" />
          </mxGeometry>
        </mxCell>
        <mxCell id="g6ee9xb9qPj-vaVIbg3L-21" value="make performance (live)" style="ellipse;whiteSpace=wrap;html=1;" parent="1" vertex="1">
          <mxGeometry x="800" y="350" width="120" height="50" as="geometry" />
        </mxCell>
        <mxCell id="g6ee9xb9qPj-vaVIbg3L-22" value="&amp;lt;&amp;lt;include&amp;gt;&amp;gt;" style="edgeStyle=none;html=1;endArrow=open;verticalAlign=bottom;dashed=1;labelBackgroundColor=none;" parent="1" source="g6ee9xb9qPj-vaVIbg3L-21" target="g6ee9xb9qPj-vaVIbg3L-23" edge="1">
          <mxGeometry width="160" relative="1" as="geometry">
            <mxPoint x="920" y="410" as="sourcePoint" />
            <mxPoint x="1080" y="410" as="targetPoint" />
          </mxGeometry>
        </mxCell>
        <mxCell id="g6ee9xb9qPj-vaVIbg3L-23" value="friendly tip (charge)" style="ellipse;whiteSpace=wrap;html=1;" parent="1" vertex="1">
          <mxGeometry x="1020" y="345" width="120" height="60" as="geometry" />
        </mxCell>
        <mxCell id="g6ee9xb9qPj-vaVIbg3L-24" value="&amp;lt;&amp;lt;include&amp;gt;&amp;gt;" style="edgeStyle=none;html=1;endArrow=open;verticalAlign=bottom;dashed=1;labelBackgroundColor=none;exitX=0.985;exitY=0.625;exitDx=0;exitDy=0;exitPerimeter=0;" parent="1" source="g6ee9xb9qPj-vaVIbg3L-17" target="g6ee9xb9qPj-vaVIbg3L-25" edge="1">
          <mxGeometry width="160" relative="1" as="geometry">
            <mxPoint x="330" y="330" as="sourcePoint" />
            <mxPoint x="680" y="530" as="targetPoint" />
          </mxGeometry>
        </mxCell>
        <mxCell id="g6ee9xb9qPj-vaVIbg3L-25" value="inform if event cancelled" style="ellipse;whiteSpace=wrap;html=1;" parent="1" vertex="1">
          <mxGeometry x="610" y="450" width="120" height="80" as="geometry" />
        </mxCell>
        <mxCell id="1dY2Ok-_MmGDfs7nc5tz-2" value="&amp;lt;&amp;lt;extend&amp;gt;&amp;gt;" style="edgeStyle=none;html=1;startArrow=open;endArrow=none;startSize=12;verticalAlign=bottom;dashed=1;labelBackgroundColor=none;entryX=0.5;entryY=1;entryDx=0;entryDy=0;exitX=0.5;exitY=0;exitDx=0;exitDy=0;" edge="1" parent="1" source="1dY2Ok-_MmGDfs7nc5tz-3" target="g6ee9xb9qPj-vaVIbg3L-3">
          <mxGeometry width="160" relative="1" as="geometry">
            <mxPoint x="240" y="590" as="sourcePoint" />
            <mxPoint x="340" y="600" as="targetPoint" />
          </mxGeometry>
        </mxCell>
        <mxCell id="1dY2Ok-_MmGDfs7nc5tz-3" value="see hidden (from usual users) client-cafe collection in Band profile" style="ellipse;whiteSpace=wrap;html=1;fillColor=#fff2cc;strokeColor=#d6b656;" vertex="1" parent="1">
          <mxGeometry x="160" y="690" width="150" height="110" as="geometry" />
        </mxCell>
        <mxCell id="1dY2Ok-_MmGDfs7nc5tz-4" value="&amp;lt;&amp;lt;include&amp;gt;&amp;gt;" style="edgeStyle=none;html=1;endArrow=open;verticalAlign=bottom;dashed=1;labelBackgroundColor=none;exitX=1;exitY=0.5;exitDx=0;exitDy=0;entryX=0;entryY=0.5;entryDx=0;entryDy=0;" edge="1" parent="1" source="1dY2Ok-_MmGDfs7nc5tz-3" target="1dY2Ok-_MmGDfs7nc5tz-5">
          <mxGeometry width="160" relative="1" as="geometry">
            <mxPoint x="380" y="670" as="sourcePoint" />
            <mxPoint x="440" y="655" as="targetPoint" />
          </mxGeometry>
        </mxCell>
        <mxCell id="1dY2Ok-_MmGDfs7nc5tz-5" value="see initial collection, automatically sorted&lt;br&gt;by Band location&lt;br&gt;by Band musicStyle" style="ellipse;whiteSpace=wrap;html=1;fillColor=#fff2cc;strokeColor=#d6b656;" vertex="1" parent="1">
          <mxGeometry x="450" y="690" width="170" height="110" as="geometry" />
        </mxCell>
        <mxCell id="1dY2Ok-_MmGDfs7nc5tz-6" value="&amp;lt;&amp;lt;include&amp;gt;&amp;gt;" style="edgeStyle=none;html=1;endArrow=open;verticalAlign=bottom;dashed=1;labelBackgroundColor=none;exitX=1;exitY=0;exitDx=0;exitDy=0;entryX=0.5;entryY=1;entryDx=0;entryDy=0;" edge="1" parent="1" source="1dY2Ok-_MmGDfs7nc5tz-5" target="1dY2Ok-_MmGDfs7nc5tz-10">
          <mxGeometry x="-0.2647" y="6" width="160" relative="1" as="geometry">
            <mxPoint x="810" y="440" as="sourcePoint" />
            <mxPoint x="900" y="535" as="targetPoint" />
            <mxPoint as="offset" />
          </mxGeometry>
        </mxCell>
        <mxCell id="1dY2Ok-_MmGDfs7nc5tz-8" value="&amp;lt;&amp;lt;extend&amp;gt;&amp;gt;" style="edgeStyle=none;html=1;startArrow=open;endArrow=none;startSize=12;verticalAlign=bottom;dashed=1;labelBackgroundColor=none;entryX=1;entryY=0.5;entryDx=0;entryDy=0;exitX=0;exitY=0.5;exitDx=0;exitDy=0;" edge="1" parent="1" source="1dY2Ok-_MmGDfs7nc5tz-9" target="1dY2Ok-_MmGDfs7nc5tz-5">
          <mxGeometry width="160" relative="1" as="geometry">
            <mxPoint x="750" y="600" as="sourcePoint" />
            <mxPoint x="750" y="625" as="targetPoint" />
          </mxGeometry>
        </mxCell>
        <mxCell id="1dY2Ok-_MmGDfs7nc5tz-9" value="make custom filter" style="ellipse;whiteSpace=wrap;html=1;fillColor=#fff2cc;strokeColor=#d6b656;" vertex="1" parent="1">
          <mxGeometry x="750" y="705" width="120" height="80" as="geometry" />
        </mxCell>
        <mxCell id="1dY2Ok-_MmGDfs7nc5tz-10" value="Send&amp;nbsp;&lt;br&gt;&quot;Check me out!&quot;&lt;br&gt;request to client(cafe)" style="ellipse;whiteSpace=wrap;html=1;fillColor=#fff2cc;strokeColor=#d6b656;" vertex="1" parent="1">
          <mxGeometry x="630" y="580" width="180" height="85" as="geometry" />
        </mxCell>
        <mxCell id="1dY2Ok-_MmGDfs7nc5tz-11" value="&amp;lt;&amp;lt;include&amp;gt;&amp;gt;" style="edgeStyle=none;html=1;endArrow=open;verticalAlign=bottom;dashed=1;labelBackgroundColor=none;exitX=0.5;exitY=0;exitDx=0;exitDy=0;entryX=0.5;entryY=1;entryDx=0;entryDy=0;" edge="1" parent="1" source="1dY2Ok-_MmGDfs7nc5tz-9" target="1dY2Ok-_MmGDfs7nc5tz-10">
          <mxGeometry x="-0.2647" y="6" width="160" relative="1" as="geometry">
            <mxPoint x="605.1040764008565" y="716.1091270347397" as="sourcePoint" />
            <mxPoint x="697" y="632.5" as="targetPoint" />
            <mxPoint as="offset" />
          </mxGeometry>
        </mxCell>
        <mxCell id="1dY2Ok-_MmGDfs7nc5tz-12" value="&amp;lt;&amp;lt;include&amp;gt;&amp;gt;" style="edgeStyle=none;html=1;endArrow=open;verticalAlign=bottom;dashed=1;labelBackgroundColor=none;exitX=0;exitY=0.5;exitDx=0;exitDy=0;entryX=0.5;entryY=1;entryDx=0;entryDy=0;" edge="1" parent="1" source="1dY2Ok-_MmGDfs7nc5tz-10" target="g6ee9xb9qPj-vaVIbg3L-17">
          <mxGeometry x="-0.2647" y="6" width="160" relative="1" as="geometry">
            <mxPoint x="325.10407640085646" y="641.1091270347397" as="sourcePoint" />
            <mxPoint x="450" y="600" as="targetPoint" />
            <mxPoint as="offset" />
          </mxGeometry>
        </mxCell>
      </root>
    </mxGraphModel>
  </diagram>
</mxfile>
